<?xml version="1.0" encoding="UTF-8"?>
<!DOCTYPE svg PUBLIC "-//W3C//DTD SVG 1.1//EN" "http://www.w3.org/Graphics/SVG/1.1/DTD/svg11.dtd">
<!-- Creator: CorelDRAW -->
<svg xmlns="http://www.w3.org/2000/svg" xml:space="preserve" width="1.70666in" height="1.70666in" version="1.1" style="shape-rendering:geometricPrecision; text-rendering:geometricPrecision; image-rendering:optimizeQuality; fill-rule:evenodd; clip-rule:evenodd"
viewBox="0 0 1707 1707"
 xmlns:xlink="http://www.w3.org/1999/xlink">
 <defs>
  <style type="text/css">
   <![CDATA[
    .fil0 {fill:black}
    .fil2 {fill:url(#id0)}
    .fil1 {fill:url(#id1)}
   ]]>
  </style>
  <linearGradient id="id0" gradientUnits="userSpaceOnUse" x1="796.197" y1="1436.14" x2="903.394" y2="1436.14">
   <stop offset="0" style="stop-opacity:1; stop-color:#8E4D21"/>
   <stop offset="1" style="stop-opacity:1; stop-color:#663300"/>
  </linearGradient>
  <linearGradient id="id1" gradientUnits="userSpaceOnUse" x1="166.827" y1="664.504" x2="1539.84" y2="664.504">
   <stop offset="0" style="stop-opacity:1; stop-color:#378B4E"/>
   <stop offset="1" style="stop-opacity:1; stop-color:#99CC33"/>
  </linearGradient>
 </defs>
 <g id="Layer_x0020_1">
  <metadata id="CorelCorpID_0Corel-Layer"/>
  <path class="fil0" d="M792 875c-22,0 -40,-18 -40,-40 0,-36 -29,-66 -65,-66 -21,0 -41,10 -53,27 -13,18 -38,22 -56,9 -18,-13 -22,-38 -9,-56 27,-37 71,-60 118,-60 80,0 145,65 145,146 0,22 -18,40 -40,40zm-38 831l-1 0 0 0 0 0 0 0 -271 0c-22,0 -40,-18 -40,-40 0,-22 18,-40 40,-40l234 0 18 -337c-88,-1 -172,-39 -229,-105 -18,2 -36,4 -54,4 -201,0 -364,-164 -364,-365 0,-139 81,-267 205,-327 -4,-21 -5,-41 -5,-61 0,-201 163,-365 364,-365 49,0 97,10 141,29 45,-62 116,-99 194,-99 74,0 143,34 188,92 209,-11 383,157 383,364 0,48 -9,94 -26,137 57,79 89,175 89,273 0,255 -208,463 -463,463 -63,0 -123,-13 -180,-37l6 334 233 0c22,0 40,18 40,40 0,22 -18,40 -40,40l-271 0 0 0c0,0 -1,0 -1,0l-1 0 -188 0 -1 0zm60 -427l-18 347 107 0 -7 -378 -2 -2c-25,15 -52,26 -80,33zm-44 -72c30,-5 58,-15 84,-30 1,-37 16,-73 42,-99 57,-57 149,-57 206,0 15,16 15,41 0,57 -16,15 -41,15 -57,0 -25,-26 -67,-26 -92,0 -11,11 -18,26 -19,41 7,6 14,10 21,15 1,1 2,1 3,2 60,36 128,56 199,56 211,0 383,-172 383,-383 0,-83 -27,-163 -76,-229 -53,-7 -101,-39 -127,-86 -28,-47 -31,-106 -9,-156 9,-20 32,-30 52,-21 21,9 30,33 21,53 -12,27 -10,59 5,85 12,20 31,35 54,42 11,-31 17,-64 17,-98 0,-157 -127,-284 -284,-284 -11,0 -22,0 -33,1 -16,2 -31,-5 -39,-18 -29,-47 -80,-75 -135,-75 -57,0 -109,31 -138,80 5,47 45,84 94,84 22,0 40,18 40,40 0,23 -18,40 -40,40 -88,0 -160,-64 -173,-148 -37,-17 -77,-26 -118,-26 -157,0 -284,128 -284,285 0,21 2,42 7,62 25,19 61,17 85,-6 14,-15 21,-36 18,-56 -3,-22 11,-43 33,-46 22,-4 42,11 46,33 7,46 -8,93 -41,126 -28,28 -65,42 -103,42 -28,0 -56,-8 -81,-25 -99,47 -164,148 -164,258 0,157 127,285 284,285 16,0 33,-2 49,-4 7,-11 12,-25 12,-38 0,-18 -7,-34 -20,-47 -14,-14 -35,-21 -56,-18 -22,3 -42,-12 -46,-33 -3,-22 12,-43 34,-46 45,-7 92,8 125,41 27,27 43,64 43,103 0,26 -7,51 -20,73 42,44 102,70 164,70 11,0 22,0 34,-2zm230 -587c-22,0 -40,-18 -40,-40 0,-36 -29,-65 -65,-65 -21,0 -41,10 -53,27 -13,18 -38,22 -56,9 -18,-13 -22,-38 -9,-56 27,-38 71,-60 118,-60 80,0 145,65 145,145 0,22 -18,40 -40,40zm88 340c-19,0 -36,-14 -40,-33 -7,-46 8,-93 41,-126 57,-56 149,-56 206,0 15,16 15,41 0,57 -16,15 -41,15 -57,0 -25,-26 -67,-26 -92,0 -15,15 -22,36 -19,56 4,22 -11,42 -33,46 -2,0 -4,0 -6,0z"/>
  <path class="fil1" d="M687 689c80,0 145,65 145,146 0,22 -18,40 -40,40 -22,0 -40,-18 -40,-40 0,-64 -81,-90 -118,-39 -13,18 -38,22 -56,9 -18,-13 -22,-38 -9,-56 27,-37 71,-60 118,-60zm83 518c30,-5 58,-15 84,-30 3,-127 158,-189 248,-99 15,16 15,41 0,57 -16,15 -41,15 -57,0 -39,-40 -107,-14 -111,41 65,47 142,73 223,73 211,0 383,-172 383,-383 0,-83 -27,-163 -76,-229 -53,-7 -101,-39 -127,-86 -28,-47 -31,-106 -9,-156 9,-20 32,-30 52,-21 21,9 30,33 21,53 -22,52 5,111 59,127 73,-196 -88,-405 -300,-381 -16,2 -31,-5 -39,-18 -29,-47 -80,-75 -135,-75 -57,0 -109,31 -138,80 5,47 45,84 94,84 22,0 40,18 40,40 0,23 -18,40 -40,40 -88,0 -160,-64 -173,-148 -186,-86 -402,51 -402,259 0,21 2,42 7,62 25,19 61,17 85,-6 14,-15 21,-36 18,-56 -3,-22 11,-43 33,-46 22,-4 42,11 46,33 14,88 -54,168 -144,168 -28,0 -56,-8 -81,-25 -99,47 -164,148 -164,258 0,157 127,285 284,285 16,0 33,-2 49,-4 7,-11 12,-25 12,-38 0,-41 -37,-71 -76,-65 -22,3 -42,-12 -46,-33 -3,-22 12,-43 34,-46 121,-19 209,112 148,217 51,53 124,79 198,68zm230 -587c-22,0 -40,-18 -40,-40 0,-63 -81,-89 -118,-38 -13,18 -38,22 -56,9 -18,-13 -22,-38 -9,-56 27,-38 71,-60 118,-60 80,0 145,65 145,145 0,22 -18,40 -40,40zm88 340c-19,0 -36,-14 -40,-33 -7,-46 8,-93 41,-126 57,-56 149,-56 206,0 15,16 15,41 0,57 -16,15 -41,15 -57,0 -45,-45 -120,-6 -111,56 4,24 -15,46 -39,46z"/>
  <path class="fil2" d="M894 1246c-25,15 -52,26 -80,33l-18 347 107 0 -7 -378 -2 -2z"/>
 </g>
</svg>
