<?xml version="1.0" encoding="UTF-8" standalone="no"?> <svg id="Layer_1" data-name="Layer 1" xmlns="http://www.w3.org/2000/svg" viewBox="0 0 64 64"><defs><style>.cls-1{fill:#8d6e63;}.cls-2{fill:#6d4d42;}.cls-3{fill:#378e43;}.cls-4{fill:#42a047;}</style></defs><title>tree_27</title><path class="cls-1" d="M32,36V60H24a1,1,0,0,1,.17-.55L28,53.7V50.21L18.52,40.14a1,1,0,0,1-.24-.93,1,1,0,0,1,.65-.71,8.49,8.49,0,0,0,2.88-1.63,1,1,0,0,1,1.36.05L28,41.75V37a1,1,0,0,1,1-1Z"/><path class="cls-2" d="M32,36V60h8a1,1,0,0,0-.17-.55L36,53.7V50.21l9.48-10.07a1,1,0,0,0,.24-.93,1,1,0,0,0-.65-.71,8.49,8.49,0,0,1-2.88-1.63,1,1,0,0,0-1.36.05L36,41.75V37a1,1,0,0,0-1-1Z"/><path class="cls-3" d="M60,30A11,11,0,0,1,49,41a10.68,10.68,0,0,1-4.38-.92,10.12,10.12,0,0,1-2.56-1.55l-6.35,6.35a1,1,0,0,1-1.09.21,1,1,0,0,1-.62-.92V38H32V4h4.56a11,11,0,0,1,4,3.1A10,10,0,0,1,42,7,11,11,0,0,1,53,18a10.76,10.76,0,0,1-.13,1.71A11,11,0,0,1,60,30Z"/><path class="cls-4" d="M32,4V38H30v6.17a1,1,0,0,1-.45.83H28.43l-.14-.12L22.38,39A11.08,11.08,0,0,1,16,41a11,11,0,0,1-4.8-20.89A11.51,11.51,0,0,1,11,18,11,11,0,0,1,22,7a10,10,0,0,1,1.45.1,11,11,0,0,1,4-3.1Z"/><path d="M39,61H25a1,1,0,0,1-.88-.53,1,1,0,0,1,.05-1L28,53.7V37a1,1,0,0,1,1-1h6a1,1,0,0,1,1,1V53.7l3.83,5.75A1,1,0,0,1,39,61ZM26.87,59H37.13l-3-4.45A1,1,0,0,1,34,54V38H30V54a1,1,0,0,1-.17.55Z"/><path d="M29,50.81a1,1,0,0,1-.73-.31L18.52,40.14a1,1,0,0,1-.24-.93,1,1,0,0,1,.65-.71,8.49,8.49,0,0,0,2.88-1.63,1,1,0,0,1,1.36.05l6.54,6.54a1,1,0,0,1,.29.71v5.64a1,1,0,0,1-.63.93A1,1,0,0,1,29,50.81Zm-8-11,7,7.48V44.58L22.38,39A10.15,10.15,0,0,1,21,39.81Z"/><path d="M35,50.81a1,1,0,0,1-.37-.07,1,1,0,0,1-.63-.93V44.17a1,1,0,0,1,.29-.71l7-7a1,1,0,0,1,1.41,0,8.73,8.73,0,0,0,2.69,1.81A1,1,0,0,1,46,39a1,1,0,0,1-.25.89l-10,10.64A1,1,0,0,1,35,50.81Zm1-6.23v2.71l7.38-7.84a10,10,0,0,1-1.32-.92Z"/><path d="M29,45.17a1,1,0,0,1-.71-.29L22.38,39a10.67,10.67,0,0,1-2.81,1.44A11,11,0,0,1,11.2,20.11a11.11,11.11,0,0,1,12.25-13,11.08,11.08,0,0,1,17.1,0A11.11,11.11,0,0,1,52.87,19.71a11,11,0,1,1-8.25,20.37,10.12,10.12,0,0,1-2.56-1.55l-6.35,6.35a1,1,0,0,1-1.09.21,1,1,0,0,1-.62-.92V38H30v6.17a1,1,0,0,1-.62.92A.84.84,0,0,1,29,45.17Zm-6.54-8.54a1,1,0,0,1,.71.29L28,41.76V37a1,1,0,0,1,1-1h6a1,1,0,0,1,1,1v4.76l5.31-5.32a1,1,0,0,1,1.41,0,8.73,8.73,0,0,0,2.69,1.81,9,9,0,1,0,6-16.91,1,1,0,0,1-.7-1.2,9.08,9.08,0,0,0-10.43-11,1,1,0,0,1-1-.4,9.07,9.07,0,0,0-14.62,0,1,1,0,0,1-1,.4A9.09,9.09,0,0,0,13.33,20.42a1,1,0,0,1-.6,1.2,9,9,0,0,0,6.19,16.89,8.63,8.63,0,0,0,2.89-1.64A1,1,0,0,1,22.46,36.63Z"/></svg>