<?xml version="1.0" encoding="UTF-8"?>
<svg id="Layer_1" data-name="Layer 1" xmlns="http://www.w3.org/2000/svg" viewBox="0 0 48 48">
  <defs>
    <style>
      .cls-1 {
        fill: #9a4c29;
      }

      .cls-1, .cls-2, .cls-3 {
        stroke-width: 0px;
      }

      .cls-2 {
        fill: #00b277;
      }

      .cls-3 {
        fill: #00d18d;
      }
    </style>
  </defs>
  <path class="cls-3" d="M36.057,22.524c1.203-1.33,1.943-3.089,1.943-5.024,0-3.859-2.915-7.033-6.662-7.45.105-.5.162-1.018.162-1.55,0-4.142-3.358-7.5-7.5-7.5s-7.5,3.358-7.5,7.5c0,.531.057,1.049.162,1.55-3.747.417-6.662,3.592-6.662,7.45,0,1.935.739,3.693,1.943,5.024-2.318.993-3.943,3.294-3.943,5.976,0,3.59,2.91,6.5,6.5,6.5h19c3.59,0,6.5-2.91,6.5-6.5,0-2.682-1.625-4.983-3.943-5.976Z"/>
  <path class="cls-2" d="M38.89,24.869c.07.367.11.744.11,1.131,0,3.314-2.686,6-6,6H11c-.789,0-1.541-.156-2.231-.433,1.096,2.043,3.25,3.433,5.731,3.433h19c3.59,0,6.5-2.91,6.5-6.5,0-1.345-.41-2.595-1.11-3.631Z"/>
  <path class="cls-2" d="M33.523,21.195c-.294.31-.111.812.314.849.684.058,1.541.189,2.22.48,0,0,0,0,0,0,1.203-1.33,1.943-3.089,1.943-5.024,0-2.256-1.001-4.272-2.577-5.646.367.981.577,2.038.577,3.146,0,2.402-.943,4.582-2.477,6.195Z"/>
  <path class="cls-2" d="M31.5,8.5c0,.53-.06,1.05-.16,1.55-.199-.021-.851-.018-1.432.011-.366.018-.625-.347-.483-.685.373-.887.575-1.858.575-2.876,0-1.24-.3-2.4-.83-3.43,1.43,1.37,2.33,3.29,2.33,5.43Z"/>
  <path class="cls-1" d="M30.04,24.04l-.081-.081c-.374-.374-.976-.392-1.371-.04l-3.361,2.987-.19-4.945c-.021-.537-.462-.962-.999-.962h-.075c-.537,0-.979.425-.999.962l-.302,7.845-3.249-2.888c-.396-.352-.997-.334-1.371.04l-.081.081c-.374.374-.392.976-.04,1.371l4.597,5.172-.476,12.377c-.022.567.432,1.038.999,1.038h1.922c.567,0,1.021-.471.999-1.038l-.587-15.253,4.707-5.297c.352-.396.334-.997-.04-1.371Z"/>
</svg>