<?xml version="1.0" encoding="UTF-8"?>
<!DOCTYPE svg PUBLIC "-//W3C//DTD SVG 1.1//EN" "http://www.w3.org/Graphics/SVG/1.1/DTD/svg11.dtd">
<!-- Creator: CorelDRAW -->
<svg xmlns="http://www.w3.org/2000/svg" xml:space="preserve" width="1.70666in" height="1.70666in" version="1.1" style="shape-rendering:geometricPrecision; text-rendering:geometricPrecision; image-rendering:optimizeQuality; fill-rule:evenodd; clip-rule:evenodd"
viewBox="0 0 1707 1707"
 xmlns:xlink="http://www.w3.org/1999/xlink">
 <defs>
  <style type="text/css">
   <![CDATA[
    .fil1 {fill:#7A4414}
    .fil0 {fill:#874C16}
    .fil3 {fill:#4C9D38;fill-rule:nonzero}
    .fil2 {fill:#5EAC24;fill-rule:nonzero}
   ]]>
  </style>
 </defs>
 <g id="Layer_x0020_1">
  <metadata id="CorelCorpID_0Corel-Layer"/>
  <g id="_586316880">
   <path class="fil0" d="M752 1666l22 -509c45,-6 87,-24 122,-50 13,11 27,20 42,29l8 530 -194 0z"/>
   <path class="fil1" d="M769 1278l5 -121c45,-6 87,-24 122,-50 13,11 27,20 42,29l2 127c-16,-8 -31,-18 -45,-28 -39,23 -82,38 -126,43z"/>
   <path class="fil2" d="M896 1185c-46,34 -102,54 -163,54 -90,0 -171,-44 -220,-112 -23,5 -47,7 -72,7 -183,0 -332,-148 -332,-332 0,-143 90,-264 216,-311 -7,-28 -11,-57 -11,-87 0,-184 148,-333 332,-333 58,0 113,15 160,42 34,-67 103,-113 183,-113 73,0 137,38 173,96 13,-2 26,-3 39,-3 184,0 333,149 333,333 0,52 -13,102 -34,146 61,74 98,170 98,274 0,239 -194,433 -433,433 -102,0 -195,-35 -269,-94z"/>
   <g>
    <path class="fil3" d="M754 90c18,6 36,14 52,23 8,-16 18,-30 29,-43 0,0 0,1 0,2 0,26 11,50 29,68 17,17 41,28 68,28 22,0 41,18 41,41 0,23 -19,41 -41,41 -49,0 -94,-20 -126,-52 -29,-29 -47,-66 -52,-108z"/>
    <path class="fil3" d="M1515 536c-4,12 -9,24 -15,36 13,16 25,33 36,52 -28,-2 -54,-11 -78,-25 -25,-15 -47,-37 -63,-64l0 0c-14,-24 -22,-52 -24,-79 -1,-27 3,-55 15,-81 9,-21 33,-30 54,-21 20,9 30,33 21,53 -6,14 -9,30 -8,44 1,15 5,30 13,43l-1 0 1 0c8,15 20,27 34,35 5,3 10,5 15,7z"/>
    <path class="fil3" d="M273 515c17,-9 34,-18 52,-24 -4,-16 -7,-31 -9,-47 13,12 30,19 46,19 17,0 35,-7 48,-20l0 0c7,-8 13,-17 16,-27 3,-10 4,-20 3,-31 -4,-22 12,-43 34,-47 22,-3 43,12 46,34 4,24 2,48 -5,70 -7,22 -20,42 -36,59l0 0 0 0c-29,29 -68,43 -106,43 -31,0 -62,-9 -89,-29z"/>
    <path class="fil3" d="M551 1169c-14,-13 -27,-27 -38,-42 -13,2 -25,4 -38,6 1,-1 1,-2 2,-3 13,-13 20,-31 20,-48 0,-17 -7,-34 -20,-47l0 0c-7,-8 -16,-13 -26,-17 -10,-3 -21,-4 -32,-2 -22,3 -43,-12 -46,-34 -4,-22 12,-43 34,-47 23,-3 47,-1 69,6 22,7 42,19 59,36l0 0 0 0c29,29 44,67 44,105 0,31 -9,61 -28,87z"/>
    <path class="fil3" d="M896 1185c-15,11 -32,21 -49,29 0,-16 2,-32 7,-47 7,-22 19,-43 36,-59l0 0 0 0c29,-30 67,-44 106,-44 38,0 76,14 105,44 16,16 16,41 0,57 -16,16 -42,16 -58,0 -13,-13 -30,-19 -47,-19 -18,0 -35,6 -48,19l0 0c-8,8 -13,17 -16,27 -2,5 -3,11 -3,17 -12,-8 -23,-15 -33,-24z"/>
   </g>
   <path class="fil2" d="M473 1707c-23,0 -41,-19 -41,-41 0,-23 18,-41 41,-41l752 0c23,0 41,18 41,41 0,22 -18,41 -41,41l-752 0z"/>
   <path class="fil3" d="M841 514c-13,18 -38,22 -57,8 -18,-13 -22,-38 -9,-56 15,-20 33,-35 53,-46 21,-10 44,-16 68,-16 41,0 78,17 105,44 27,27 44,64 44,105 0,23 -19,41 -41,41 -23,0 -41,-18 -41,-41 0,-18 -8,-35 -20,-47 -12,-12 -29,-20 -47,-20 -11,0 -21,3 -31,7 -9,5 -17,12 -24,21z"/>
   <path class="fil3" d="M1134 895c3,23 -12,44 -34,47 -22,3 -43,-12 -47,-34 -3,-24 -1,-47 6,-69 7,-22 19,-43 36,-59l0 0 0 -1c29,-29 67,-43 105,-43 38,0 77,14 106,43 16,16 16,42 0,58 -16,16 -42,16 -58,0 -13,-13 -30,-19 -48,-19 -17,0 -34,6 -47,19l0 0c-8,8 -13,17 -16,27 -4,10 -5,21 -3,31z"/>
   <path class="fil3" d="M628 774c-13,18 -39,22 -57,9 -18,-13 -22,-39 -9,-57 14,-19 33,-35 53,-45 21,-11 44,-16 68,-16 41,0 78,16 105,43 27,27 43,65 43,106 0,22 -18,41 -40,41 -23,0 -41,-19 -41,-41 0,-19 -8,-36 -20,-48 -12,-12 -29,-19 -47,-19 -11,0 -22,2 -31,7 -9,5 -18,12 -24,20z"/>
  </g>
 </g>
</svg>
