<?xml version="1.0" encoding="UTF-8" standalone="no"?> <svg id="Layer_1" data-name="Layer 1" xmlns="http://www.w3.org/2000/svg" viewBox="0 0 64 64"><defs><style>.cls-1{fill:#8d6e63;}.cls-2{fill:#6d4d42;}.cls-3{fill:#42a047;}.cls-4{fill:#378e43;}</style></defs><title>tree_7</title><path class="cls-1" d="M32,27V60H28V47.24L17.36,36.6a1,1,0,0,1,.2-1.57A7.12,7.12,0,0,0,20,32.56a1,1,0,0,1,1.57-.2l6.4,6.4V27.62a1,1,0,0,1,.21-.62Z"/><path class="cls-2" d="M32,27V60h4V47.24L46.64,36.6a1,1,0,0,0-.2-1.57A7.12,7.12,0,0,1,44,32.56a1,1,0,0,0-1.57-.2L36,38.76V27.62a1,1,0,0,0-.21-.62Z"/><path d="M14,20a9,9,0,1,0,9,9A9,9,0,0,0,14,20Zm6,12.56A7,7,0,0,1,14,36a7,7,0,1,1,6-3.44Z"/><path d="M50,38a9,9,0,1,1,9-9A9,9,0,0,1,50,38Zm0-16a7,7,0,0,0-6,10.56A7,7,0,0,0,50,36a7,7,0,0,0,0-14Z"/><path class="cls-3" d="M32,4V29A13,13,0,0,1,27,4Z"/><path class="cls-3" d="M14,20V38a9,9,0,0,1,0-18Z"/><path class="cls-4" d="M14,20V38a9,9,0,0,0,0-18Z"/><path class="cls-4" d="M32,4V29A13,13,0,0,0,37,4Z"/><path class="cls-4" d="M50,20V38a9,9,0,0,0,0-18Z"/><path class="cls-3" d="M50,20V38a9,9,0,0,1,0-18Z"/></svg>