<?xml version="1.0" encoding="UTF-8"?>
<!DOCTYPE svg PUBLIC "-//W3C//DTD SVG 1.1//EN" "http://www.w3.org/Graphics/SVG/1.1/DTD/svg11.dtd">
<!-- Creator: CorelDRAW -->
<svg xmlns="http://www.w3.org/2000/svg" xml:space="preserve" width="1.70666in" height="1.70666in" version="1.1" style="shape-rendering:geometricPrecision; text-rendering:geometricPrecision; image-rendering:optimizeQuality; fill-rule:evenodd; clip-rule:evenodd"
viewBox="0 0 1706.66 1706.66"
 xmlns:xlink="http://www.w3.org/1999/xlink"
 xmlns:xodm="http://www.corel.com/coreldraw/odm/2003">
 <defs>
  <style type="text/css">
   <![CDATA[
    .fil0 {fill:#563413}
    .fil1 {fill:#92B835}
   ]]>
  </style>
 </defs>
 <g id="Layer_x0020_1">
  <metadata id="CorelCorpID_0Corel-Layer"/>
  <path class="fil0" d="M1020.2 1706.67l-333.74 0c-5.96,0 -11.63,-2.64 -15.48,-7.19 -3.85,-4.55 -5.51,-10.58 -4.52,-16.45 13.05,-77.97 22.46,-150.57 28.7,-221.43l-205.83 -118.85c-12.13,-7 -20.84,-18.36 -24.47,-31.96 -3.65,-13.6 -1.79,-27.77 5.23,-39.92l22.77 -39.44c7.02,-12.15 18.36,-20.83 31.96,-24.47 13.63,-3.67 27.8,-1.78 39.92,5.23l139.23 80.39c0.71,-48.28 -0.18,-95.93 -2.7,-143.2l40.64 0 223.02 0 40.65 0c-8.84,168.21 2.7,342.8 34.65,533.63 0.98,5.89 -0.66,11.91 -4.52,16.47 -3.87,4.57 -9.52,7.19 -15.49,7.19z"/>
  <path class="fil1" d="M1179.2 1174.04l-651.73 0c-143.99,0 -261.16,-117.15 -261.16,-261.15 0,-127.36 94.74,-236.18 217.39,-257.41 -22.84,-39.41 -34.77,-83.7 -34.77,-129.86 0,-102.54 61.57,-196.44 154.73,-238.34 -0.31,-5.04 -0.46,-10.1 -0.46,-15.11l0 -22.04c0,-137.92 112.2,-250.13 250.13,-250.13 137.92,0 250.15,112.21 250.15,250.13l0 22.04c0,4.99 -0.17,10.04 -0.46,15.1 93.16,41.91 154.73,135.8 154.73,238.36 0,46.17 -11.95,90.45 -34.78,129.86 122.65,21.21 217.39,130.03 217.39,257.41 -0,143.99 -117.16,261.15 -261.16,261.15z"/>
 </g>
</svg>
