<?xml version="1.0" standalone="no"?>
<svg xmlns="http://www.w3.org/2000/svg" width="300" height="300"><defs><clipPath id="clip-path-dot-color"><circle cx="5.5" cy="86.5" r="4.5" transform="rotate(0,5.5,86.5)"/><path d="M 1 100v 9h 4.5a 4.5 4.5, 0, 0, 0, 0 -9" transform="rotate(180,5.5,104.5)"/><path d="M 1 118v 9h 9v -4.5a 4.5 4.5, 0, 0, 0, -4.5 -4.5" transform="rotate(-90,5.5,122.5)"/><rect x="1" y="127" width="9" height="9" transform="rotate(0,5.5,131.5)"/><rect x="1" y="136" width="9" height="9" transform="rotate(0,5.5,140.5)"/><path d="M 1 145v 9h 4.5a 4.5 4.5, 0, 0, 0, 0 -9" transform="rotate(90,5.5,149.5)"/><path d="M 1 163v 9h 9v -4.5a 4.5 4.5, 0, 0, 0, -4.5 -4.5" transform="rotate(-90,5.5,167.5)"/><rect x="1" y="172" width="9" height="9" transform="rotate(0,5.5,176.5)"/><path d="M 1 181v 9h 9v -4.5a 4.5 4.5, 0, 0, 0, -4.5 -4.5" transform="rotate(180,5.5,185.5)"/><path d="M 1 208v 9h 4.5a 4.5 4.5, 0, 0, 0, 0 -9" transform="rotate(180,5.5,212.5)"/><path d="M 10 73v 9h 4.5a 4.5 4.5, 0, 0, 0, 0 -9" transform="rotate(180,14.5,77.5)"/><path d="M 10 100v 9h 9v -4.5a 4.5 4.5, 0, 0, 0, -4.5 -4.5" transform="rotate(0,14.5,104.5)"/><rect x="10" y="109" width="9" height="9" transform="rotate(0,14.5,113.5)"/><rect x="10" y="118" width="9" height="9" transform="rotate(0,14.5,122.5)"/><path d="M 10 136v 9h 4.5a 4.5 4.5, 0, 0, 0, 0 -9" transform="rotate(0,14.5,140.5)"/><path d="M 10 154v 9h 4.5a 4.5 4.5, 0, 0, 0, 0 -9" transform="rotate(-90,14.5,158.5)"/><path d="M 10 163v 9h 9v -4.5a 4.5 4.5, 0, 0, 0, -4.5 -4.5" transform="rotate(90,14.5,167.5)"/><rect x="10" y="181" width="9" height="9" transform="rotate(0,14.5,185.5)"/><path d="M 10 208v 9h 9v -4.5a 4.5 4.5, 0, 0, 0, -4.5 -4.5" transform="rotate(0,14.5,212.5)"/><path d="M 10 217v 9h 9v -4.5a 4.5 4.5, 0, 0, 0, -4.5 -4.5" transform="rotate(180,14.5,221.5)"/><path d="M 19 73v 9h 9v -4.5a 4.5 4.5, 0, 0, 0, -4.5 -4.5" transform="rotate(0,23.5,77.5)"/><path d="M 19 82v 9h 4.5a 4.5 4.5, 0, 0, 0, 0 -9" transform="rotate(90,23.5,86.5)"/><rect x="19" y="118" width="9" height="9" transform="rotate(0,23.5,122.5)"/><path d="M 19 127v 9h 4.5a 4.5 4.5, 0, 0, 0, 0 -9" transform="rotate(90,23.5,131.5)"/><path d="M 19 145v 9h 4.5a 4.5 4.5, 0, 0, 0, 0 -9" transform="rotate(180,23.5,149.5)"/><rect x="19" y="181" width="9" height="9" transform="rotate(0,23.5,185.5)"/><path d="M 19 199v 9h 4.5a 4.5 4.5, 0, 0, 0, 0 -9" transform="rotate(180,23.5,203.5)"/><path d="M 19 217v 9h 4.5a 4.5 4.5, 0, 0, 0, 0 -9" transform="rotate(0,23.5,221.5)"/><path d="M 28 118v 9h 4.5a 4.5 4.5, 0, 0, 0, 0 -9" transform="rotate(0,32.5,122.5)"/><path d="M 28 145v 9h 9v -4.5a 4.5 4.5, 0, 0, 0, -4.5 -4.5" transform="rotate(0,32.5,149.5)"/><path d="M 28 154v 9h 9v -4.5a 4.5 4.5, 0, 0, 0, -4.5 -4.5" transform="rotate(180,32.5,158.5)"/><path d="M 28 172v 9h 9v -4.5a 4.5 4.5, 0, 0, 0, -4.5 -4.5" transform="rotate(-90,32.5,176.5)"/><path d="M 28 181v 9h 9v -4.5a 4.5 4.5, 0, 0, 0, -4.5 -4.5" transform="rotate(90,32.5,185.5)"/><rect x="28" y="199" width="9" height="9" transform="rotate(0,32.5,203.5)"/><path d="M 37 82v 9h 4.5a 4.5 4.5, 0, 0, 0, 0 -9" transform="rotate(-90,41.5,86.5)"/><path d="M 37 91v 9h 4.5a 4.5 4.5, 0, 0, 0, 0 -9" transform="rotate(90,41.5,95.5)"/><path d="M 37 127v 9h 9v -4.5a 4.5 4.5, 0, 0, 0, -4.5 -4.5" transform="rotate(-90,41.5,131.5)"/><path d="M 37 136v 9h 4.5a 4.5 4.5, 0, 0, 0, 0 -9" transform="rotate(90,41.5,140.5)"/><rect x="37" y="154" width="9" height="9" transform="rotate(0,41.5,158.5)"/><rect x="37" y="163" width="9" height="9" transform="rotate(0,41.5,167.5)"/><rect x="37" y="172" width="9" height="9" transform="rotate(0,41.5,176.5)"/><rect x="37" y="199" width="9" height="9" transform="rotate(0,41.5,203.5)"/><path d="M 37 217v 9h 4.5a 4.5 4.5, 0, 0, 0, 0 -9" transform="rotate(180,41.5,221.5)"/><path d="M 46 109v 9h 9v -4.5a 4.5 4.5, 0, 0, 0, -4.5 -4.5" transform="rotate(-90,50.5,113.5)"/><rect x="46" y="118" width="9" height="9" transform="rotate(0,50.5,122.5)"/><rect x="46" y="127" width="9" height="9" transform="rotate(0,50.5,131.5)"/><path d="M 46 154v 9h 9v -4.5a 4.5 4.5, 0, 0, 0, -4.5 -4.5" transform="rotate(0,50.5,158.5)"/><rect x="46" y="163" width="9" height="9" transform="rotate(0,50.5,167.5)"/><path d="M 46 172v 9h 9v -4.5a 4.5 4.5, 0, 0, 0, -4.5 -4.5" transform="rotate(90,50.5,176.5)"/><path d="M 46 190v 9h 4.5a 4.5 4.5, 0, 0, 0, 0 -9" transform="rotate(-90,50.5,194.5)"/><rect x="46" y="199" width="9" height="9" transform="rotate(0,50.5,203.5)"/><rect x="46" y="217" width="9" height="9" transform="rotate(0,50.5,221.5)"/><circle cx="59.5" cy="77.5" r="4.5" transform="rotate(0,59.5,77.5)"/><circle cx="59.5" cy="95.5" r="4.5" transform="rotate(0,59.5,95.5)"/><rect x="55" y="109" width="9" height="9" transform="rotate(0,59.5,113.5)"/><rect x="55" y="127" width="9" height="9" transform="rotate(0,59.5,131.5)"/><path d="M 55 145v 9h 4.5a 4.5 4.5, 0, 0, 0, 0 -9" transform="rotate(180,59.5,149.5)"/><rect x="55" y="163" width="9" height="9" transform="rotate(0,59.5,167.5)"/><circle cx="59.5" cy="185.5" r="4.5" transform="rotate(0,59.5,185.5)"/><path d="M 55 199v 9h 4.5a 4.5 4.5, 0, 0, 0, 0 -9" transform="rotate(0,59.5,203.5)"/><rect x="55" y="217" width="9" height="9" transform="rotate(0,59.5,221.5)"/><path d="M 64 82v 9h 4.5a 4.5 4.5, 0, 0, 0, 0 -9" transform="rotate(180,68.5,86.5)"/><path d="M 64 100v 9h 4.5a 4.5 4.5, 0, 0, 0, 0 -9" transform="rotate(-90,68.5,104.5)"/><rect x="64" y="109" width="9" height="9" transform="rotate(0,68.5,113.5)"/><rect x="64" y="127" width="9" height="9" transform="rotate(0,68.5,131.5)"/><rect x="64" y="145" width="9" height="9" transform="rotate(0,68.5,149.5)"/><rect x="64" y="154" width="9" height="9" transform="rotate(0,68.5,158.5)"/><rect x="64" y="163" width="9" height="9" transform="rotate(0,68.5,167.5)"/><path d="M 64 172v 9h 4.5a 4.5 4.5, 0, 0, 0, 0 -9" transform="rotate(90,68.5,176.5)"/><path d="M 64 208v 9h 4.5a 4.5 4.5, 0, 0, 0, 0 -9" transform="rotate(-90,68.5,212.5)"/><rect x="64" y="217" width="9" height="9" transform="rotate(0,68.5,221.5)"/><path d="M 73 10v 9h 4.5a 4.5 4.5, 0, 0, 0, 0 -9" transform="rotate(-90,77.5,14.5)"/><rect x="73" y="19" width="9" height="9" transform="rotate(0,77.5,23.5)"/><path d="M 73 28v 9h 9v -4.5a 4.5 4.5, 0, 0, 0, -4.5 -4.5" transform="rotate(180,77.5,32.5)"/><path d="M 73 46v 9h 4.5a 4.5 4.5, 0, 0, 0, 0 -9" transform="rotate(-90,77.5,50.5)"/><path d="M 73 55v 9h 4.5a 4.5 4.5, 0, 0, 0, 0 -9" transform="rotate(90,77.5,59.5)"/><rect x="73" y="82" width="9" height="9" transform="rotate(0,77.5,86.5)"/><rect x="73" y="109" width="9" height="9" transform="rotate(0,77.5,113.5)"/><rect x="73" y="118" width="9" height="9" transform="rotate(0,77.5,122.5)"/><rect x="73" y="127" width="9" height="9" transform="rotate(0,77.5,131.5)"/><path d="M 73 145v 9h 9v -4.5a 4.5 4.5, 0, 0, 0, -4.5 -4.5" transform="rotate(0,77.5,149.5)"/><rect x="73" y="154" width="9" height="9" transform="rotate(0,77.5,158.5)"/><rect x="73" y="163" width="9" height="9" transform="rotate(0,77.5,167.5)"/><path d="M 73 190v 9h 9v -4.5a 4.5 4.5, 0, 0, 0, -4.5 -4.5" transform="rotate(-90,77.5,194.5)"/><path d="M 73 199v 9h 4.5a 4.5 4.5, 0, 0, 0, 0 -9" transform="rotate(90,77.5,203.5)"/><path d="M 73 217v 9h 4.5a 4.5 4.5, 0, 0, 0, 0 -9" transform="rotate(0,77.5,221.5)"/><path d="M 73 271v 9h 9v -4.5a 4.5 4.5, 0, 0, 0, -4.5 -4.5" transform="rotate(-90,77.5,275.5)"/><path d="M 73 280v 9h 4.5a 4.5 4.5, 0, 0, 0, 0 -9" transform="rotate(90,77.5,284.5)"/><path d="M 82 1v 9h 4.5a 4.5 4.5, 0, 0, 0, 0 -9" transform="rotate(180,86.5,5.5)"/><rect x="82" y="28" width="9" height="9" transform="rotate(0,86.5,32.5)"/><path d="M 82 73v 9h 4.5a 4.5 4.5, 0, 0, 0, 0 -9" transform="rotate(-90,86.5,77.5)"/><rect x="82" y="82" width="9" height="9" transform="rotate(0,86.5,86.5)"/><path d="M 82 91v 9h 9v -4.5a 4.5 4.5, 0, 0, 0, -4.5 -4.5" transform="rotate(180,86.5,95.5)"/><path d="M 82 109v 9h 9v -4.5a 4.5 4.5, 0, 0, 0, -4.5 -4.5" transform="rotate(0,86.5,113.5)"/><rect x="82" y="118" width="9" height="9" transform="rotate(0,86.5,122.5)"/><rect x="82" y="127" width="9" height="9" transform="rotate(0,86.5,131.5)"/><path d="M 82 163v 9h 9v -4.5a 4.5 4.5, 0, 0, 0, -4.5 -4.5" transform="rotate(0,86.5,167.5)"/><rect x="82" y="172" width="9" height="9" transform="rotate(0,86.5,176.5)"/><rect x="82" y="181" width="9" height="9" transform="rotate(0,86.5,185.5)"/><path d="M 82 190v 9h 9v -4.5a 4.5 4.5, 0, 0, 0, -4.5 -4.5" transform="rotate(90,86.5,194.5)"/><path d="M 82 208v 9h 4.5a 4.5 4.5, 0, 0, 0, 0 -9" transform="rotate(180,86.5,212.5)"/><path d="M 82 235v 9h 4.5a 4.5 4.5, 0, 0, 0, 0 -9" transform="rotate(-90,86.5,239.5)"/><path d="M 82 244v 9h 9v -4.5a 4.5 4.5, 0, 0, 0, -4.5 -4.5" transform="rotate(180,86.5,248.5)"/><path d="M 82 262v 9h 9v -4.5a 4.5 4.5, 0, 0, 0, -4.5 -4.5" transform="rotate(-90,86.5,266.5)"/><path d="M 82 271v 9h 9v -4.5a 4.5 4.5, 0, 0, 0, -4.5 -4.5" transform="rotate(90,86.5,275.5)"/><path d="M 82 289v 9h 4.5a 4.5 4.5, 0, 0, 0, 0 -9" transform="rotate(180,86.5,293.5)"/><path d="M 91 1v 9h 9v -4.5a 4.5 4.5, 0, 0, 0, -4.5 -4.5" transform="rotate(0,95.5,5.5)"/><rect x="91" y="10" width="9" height="9" transform="rotate(0,95.5,14.5)"/><rect x="91" y="19" width="9" height="9" transform="rotate(0,95.5,23.5)"/><rect x="91" y="28" width="9" height="9" transform="rotate(0,95.5,32.5)"/><path d="M 91 46v 9h 4.5a 4.5 4.5, 0, 0, 0, 0 -9" transform="rotate(-90,95.5,50.5)"/><rect x="91" y="55" width="9" height="9" transform="rotate(0,95.5,59.5)"/><path d="M 91 64v 9h 4.5a 4.5 4.5, 0, 0, 0, 0 -9" transform="rotate(90,95.5,68.5)"/><path d="M 91 91v 9h 4.5a 4.5 4.5, 0, 0, 0, 0 -9" transform="rotate(0,95.5,95.5)"/><rect x="91" y="127" width="9" height="9" transform="rotate(0,95.5,131.5)"/><path d="M 91 208v 9h 4.5a 4.5 4.5, 0, 0, 0, 0 -9" transform="rotate(0,95.5,212.5)"/><circle cx="95.5" cy="230.5" r="4.5" transform="rotate(0,95.5,230.5)"/><rect x="91" y="244" width="9" height="9" transform="rotate(0,95.5,248.5)"/><rect x="91" y="253" width="9" height="9" transform="rotate(0,95.5,257.5)"/><rect x="91" y="262" width="9" height="9" transform="rotate(0,95.5,266.5)"/><path d="M 91 280v 9h 4.5a 4.5 4.5, 0, 0, 0, 0 -9" transform="rotate(-90,95.5,284.5)"/><path d="M 91 289v 9h 9v -4.5a 4.5 4.5, 0, 0, 0, -4.5 -4.5" transform="rotate(90,95.5,293.5)"/><path d="M 100 28v 9h 9v -4.5a 4.5 4.5, 0, 0, 0, -4.5 -4.5" transform="rotate(0,104.5,32.5)"/><path d="M 100 37v 9h 9v -4.5a 4.5 4.5, 0, 0, 0, -4.5 -4.5" transform="rotate(180,104.5,41.5)"/><path d="M 100 118v 9h 4.5a 4.5 4.5, 0, 0, 0, 0 -9" transform="rotate(-90,104.5,122.5)"/><rect x="100" y="127" width="9" height="9" transform="rotate(0,104.5,131.5)"/><rect x="100" y="136" width="9" height="9" transform="rotate(0,104.5,140.5)"/><path d="M 100 145v 9h 4.5a 4.5 4.5, 0, 0, 0, 0 -9" transform="rotate(90,104.5,149.5)"/><path d="M 100 163v 9h 4.5a 4.5 4.5, 0, 0, 0, 0 -9" transform="rotate(-90,104.5,167.5)"/><path d="M 100 172v 9h 4.5a 4.5 4.5, 0, 0, 0, 0 -9" transform="rotate(90,104.5,176.5)"/><path d="M 100 199v 9h 4.5a 4.5 4.5, 0, 0, 0, 0 -9" transform="rotate(180,104.5,203.5)"/><path d="M 100 235v 9h 4.5a 4.5 4.5, 0, 0, 0, 0 -9" transform="rotate(-90,104.5,239.5)"/><rect x="100" y="244" width="9" height="9" transform="rotate(0,104.5,248.5)"/><rect x="100" y="262" width="9" height="9" transform="rotate(0,104.5,266.5)"/><path d="M 109 10v 9h 9v -4.5a 4.5 4.5, 0, 0, 0, -4.5 -4.5" transform="rotate(-90,113.5,14.5)"/><path d="M 109 19v 9h 4.5a 4.5 4.5, 0, 0, 0, 0 -9" transform="rotate(90,113.5,23.5)"/><path d="M 109 37v 9h 9v -4.5a 4.5 4.5, 0, 0, 0, -4.5 -4.5" transform="rotate(0,113.5,41.5)"/><rect x="109" y="46" width="9" height="9" transform="rotate(0,113.5,50.5)"/><rect x="109" y="55" width="9" height="9" transform="rotate(0,113.5,59.5)"/><rect x="109" y="64" width="9" height="9" transform="rotate(0,113.5,68.5)"/><path d="M 109 73v 9h 9v -4.5a 4.5 4.5, 0, 0, 0, -4.5 -4.5" transform="rotate(180,113.5,77.5)"/><path d="M 109 91v 9h 4.5a 4.5 4.5, 0, 0, 0, 0 -9" transform="rotate(180,113.5,95.5)"/><path d="M 109 199v 9h 9v -4.5a 4.5 4.5, 0, 0, 0, -4.5 -4.5" transform="rotate(0,113.5,203.5)"/><rect x="109" y="208" width="9" height="9" transform="rotate(0,113.5,212.5)"/><rect x="109" y="217" width="9" height="9" transform="rotate(0,113.5,221.5)"/><path d="M 109 226v 9h 9v -4.5a 4.5 4.5, 0, 0, 0, -4.5 -4.5" transform="rotate(180,113.5,230.5)"/><path d="M 109 244v 9h 9v -4.5a 4.5 4.5, 0, 0, 0, -4.5 -4.5" transform="rotate(0,113.5,248.5)"/><rect x="109" y="253" width="9" height="9" transform="rotate(0,113.5,257.5)"/><rect x="109" y="262" width="9" height="9" transform="rotate(0,113.5,266.5)"/><path d="M 118 1v 9h 4.5a 4.5 4.5, 0, 0, 0, 0 -9" transform="rotate(-90,122.5,5.5)"/><rect x="118" y="10" width="9" height="9" transform="rotate(0,122.5,14.5)"/><path d="M 118 73v 9h 4.5a 4.5 4.5, 0, 0, 0, 0 -9" transform="rotate(0,122.5,77.5)"/><rect x="118" y="91" width="9" height="9" transform="rotate(0,122.5,95.5)"/><path d="M 118 190v 9h 4.5a 4.5 4.5, 0, 0, 0, 0 -9" transform="rotate(180,122.5,194.5)"/><rect x="118" y="217" width="9" height="9" transform="rotate(0,122.5,221.5)"/><path d="M 118 226v 9h 9v -4.5a 4.5 4.5, 0, 0, 0, -4.5 -4.5" transform="rotate(90,122.5,230.5)"/><rect x="118" y="262" width="9" height="9" transform="rotate(0,122.5,266.5)"/><circle cx="122.5" cy="284.5" r="4.5" transform="rotate(0,122.5,284.5)"/><path d="M 127 10v 9h 9v -4.5a 4.5 4.5, 0, 0, 0, -4.5 -4.5" transform="rotate(0,131.5,14.5)"/><rect x="127" y="19" width="9" height="9" transform="rotate(0,131.5,23.5)"/><rect x="127" y="28" width="9" height="9" transform="rotate(0,131.5,32.5)"/><rect x="127" y="37" width="9" height="9" transform="rotate(0,131.5,41.5)"/><rect x="127" y="46" width="9" height="9" transform="rotate(0,131.5,50.5)"/><rect x="127" y="55" width="9" height="9" transform="rotate(0,131.5,59.5)"/><path d="M 127 64v 9h 9v -4.5a 4.5 4.5, 0, 0, 0, -4.5 -4.5" transform="rotate(180,131.5,68.5)"/><path d="M 127 82v 9h 9v -4.5a 4.5 4.5, 0, 0, 0, -4.5 -4.5" transform="rotate(-90,131.5,86.5)"/><rect x="127" y="91" width="9" height="9" transform="rotate(0,131.5,95.5)"/><path d="M 127 100v 9h 4.5a 4.5 4.5, 0, 0, 0, 0 -9" transform="rotate(90,131.5,104.5)"/><rect x="127" y="190" width="9" height="9" transform="rotate(0,131.5,194.5)"/><path d="M 127 217v 9h 4.5a 4.5 4.5, 0, 0, 0, 0 -9" transform="rotate(0,131.5,221.5)"/><path d="M 127 235v 9h 9v -4.5a 4.5 4.5, 0, 0, 0, -4.5 -4.5" transform="rotate(-90,131.5,239.5)"/><rect x="127" y="244" width="9" height="9" transform="rotate(0,131.5,248.5)"/><rect x="127" y="253" width="9" height="9" transform="rotate(0,131.5,257.5)"/><rect x="127" y="262" width="9" height="9" transform="rotate(0,131.5,266.5)"/><path d="M 127 271v 9h 9v -4.5a 4.5 4.5, 0, 0, 0, -4.5 -4.5" transform="rotate(180,131.5,275.5)"/><rect x="136" y="19" width="9" height="9" transform="rotate(0,140.5,23.5)"/><path d="M 136 37v 9h 9v -4.5a 4.5 4.5, 0, 0, 0, -4.5 -4.5" transform="rotate(0,140.5,41.5)"/><path d="M 136 46v 9h 9v -4.5a 4.5 4.5, 0, 0, 0, -4.5 -4.5" transform="rotate(90,140.5,50.5)"/><rect x="136" y="64" width="9" height="9" transform="rotate(0,140.5,68.5)"/><rect x="136" y="73" width="9" height="9" transform="rotate(0,140.5,77.5)"/><rect x="136" y="82" width="9" height="9" transform="rotate(0,140.5,86.5)"/><rect x="136" y="91" width="9" height="9" transform="rotate(0,140.5,95.5)"/><rect x="136" y="190" width="9" height="9" transform="rotate(0,140.5,194.5)"/><path d="M 136 226v 9h 9v -4.5a 4.5 4.5, 0, 0, 0, -4.5 -4.5" transform="rotate(-90,140.5,230.5)"/><rect x="136" y="235" width="9" height="9" transform="rotate(0,140.5,239.5)"/><rect x="136" y="262" width="9" height="9" transform="rotate(0,140.5,266.5)"/><rect x="136" y="271" width="9" height="9" transform="rotate(0,140.5,275.5)"/><circle cx="149.5" cy="5.5" r="4.5" transform="rotate(0,149.5,5.5)"/><path d="M 145 19v 9h 9v -4.5a 4.5 4.5, 0, 0, 0, -4.5 -4.5" transform="rotate(0,149.5,23.5)"/><path d="M 145 28v 9h 9v -4.5a 4.5 4.5, 0, 0, 0, -4.5 -4.5" transform="rotate(180,149.5,32.5)"/><path d="M 145 55v 9h 4.5a 4.5 4.5, 0, 0, 0, 0 -9" transform="rotate(-90,149.5,59.5)"/><rect x="145" y="64" width="9" height="9" transform="rotate(0,149.5,68.5)"/><path d="M 145 91v 9h 4.5a 4.5 4.5, 0, 0, 0, 0 -9" transform="rotate(0,149.5,95.5)"/><path d="M 145 190v 9h 9v -4.5a 4.5 4.5, 0, 0, 0, -4.5 -4.5" transform="rotate(0,149.5,194.5)"/><path d="M 145 199v 9h 9v -4.5a 4.5 4.5, 0, 0, 0, -4.5 -4.5" transform="rotate(180,149.5,203.5)"/><rect x="145" y="226" width="9" height="9" transform="rotate(0,149.5,230.5)"/><rect x="145" y="235" width="9" height="9" transform="rotate(0,149.5,239.5)"/><path d="M 145 253v 9h 9v -4.5a 4.5 4.5, 0, 0, 0, -4.5 -4.5" transform="rotate(-90,149.5,257.5)"/><rect x="145" y="262" width="9" height="9" transform="rotate(0,149.5,266.5)"/><path d="M 145 271v 9h 9v -4.5a 4.5 4.5, 0, 0, 0, -4.5 -4.5" transform="rotate(90,149.5,275.5)"/><path d="M 154 28v 9h 9v -4.5a 4.5 4.5, 0, 0, 0, -4.5 -4.5" transform="rotate(0,158.5,32.5)"/><rect x="154" y="37" width="9" height="9" transform="rotate(0,158.5,41.5)"/><path d="M 154 46v 9h 9v -4.5a 4.5 4.5, 0, 0, 0, -4.5 -4.5" transform="rotate(180,158.5,50.5)"/><path d="M 154 64v 9h 9v -4.5a 4.5 4.5, 0, 0, 0, -4.5 -4.5" transform="rotate(0,158.5,68.5)"/><path d="M 154 73v 9h 9v -4.5a 4.5 4.5, 0, 0, 0, -4.5 -4.5" transform="rotate(180,158.5,77.5)"/><circle cx="158.5" cy="104.5" r="4.5" transform="rotate(0,158.5,104.5)"/><rect x="154" y="199" width="9" height="9" transform="rotate(0,158.5,203.5)"/><rect x="154" y="208" width="9" height="9" transform="rotate(0,158.5,212.5)"/><rect x="154" y="217" width="9" height="9" transform="rotate(0,158.5,221.5)"/><rect x="154" y="226" width="9" height="9" transform="rotate(0,158.5,230.5)"/><path d="M 154 235v 9h 9v -4.5a 4.5 4.5, 0, 0, 0, -4.5 -4.5" transform="rotate(90,158.5,239.5)"/><rect x="154" y="253" width="9" height="9" transform="rotate(0,158.5,257.5)"/><path d="M 154 262v 9h 9v -4.5a 4.5 4.5, 0, 0, 0, -4.5 -4.5" transform="rotate(90,158.5,266.5)"/><path d="M 154 280v 9h 9v -4.5a 4.5 4.5, 0, 0, 0, -4.5 -4.5" transform="rotate(-90,158.5,284.5)"/><path d="M 154 289v 9h 4.5a 4.5 4.5, 0, 0, 0, 0 -9" transform="rotate(90,158.5,293.5)"/><path d="M 163 1v 9h 4.5a 4.5 4.5, 0, 0, 0, 0 -9" transform="rotate(-90,167.5,5.5)"/><rect x="163" y="10" width="9" height="9" transform="rotate(0,167.5,14.5)"/><path d="M 163 19v 9h 9v -4.5a 4.5 4.5, 0, 0, 0, -4.5 -4.5" transform="rotate(180,167.5,23.5)"/><rect x="163" y="46" width="9" height="9" transform="rotate(0,167.5,50.5)"/><path d="M 163 55v 9h 4.5a 4.5 4.5, 0, 0, 0, 0 -9" transform="rotate(90,167.5,59.5)"/><rect x="163" y="73" width="9" height="9" transform="rotate(0,167.5,77.5)"/><rect x="163" y="82" width="9" height="9" transform="rotate(0,167.5,86.5)"/><path d="M 163 91v 9h 9v -4.5a 4.5 4.5, 0, 0, 0, -4.5 -4.5" transform="rotate(180,167.5,95.5)"/><path d="M 163 190v 9h 4.5a 4.5 4.5, 0, 0, 0, 0 -9" transform="rotate(-90,167.5,194.5)"/><rect x="163" y="199" width="9" height="9" transform="rotate(0,167.5,203.5)"/><rect x="163" y="217" width="9" height="9" transform="rotate(0,167.5,221.5)"/><path d="M 163 226v 9h 9v -4.5a 4.5 4.5, 0, 0, 0, -4.5 -4.5" transform="rotate(90,167.5,230.5)"/><path d="M 163 244v 9h 4.5a 4.5 4.5, 0, 0, 0, 0 -9" transform="rotate(-90,167.5,248.5)"/><rect x="163" y="253" width="9" height="9" transform="rotate(0,167.5,257.5)"/><path d="M 163 271v 9h 4.5a 4.5 4.5, 0, 0, 0, 0 -9" transform="rotate(-90,167.5,275.5)"/><path d="M 163 280v 9h 9v -4.5a 4.5 4.5, 0, 0, 0, -4.5 -4.5" transform="rotate(90,167.5,284.5)"/><rect x="172" y="19" width="9" height="9" transform="rotate(0,176.5,23.5)"/><path d="M 172 37v 9h 9v -4.5a 4.5 4.5, 0, 0, 0, -4.5 -4.5" transform="rotate(-90,176.5,41.5)"/><rect x="172" y="46" width="9" height="9" transform="rotate(0,176.5,50.5)"/><rect x="172" y="73" width="9" height="9" transform="rotate(0,176.5,77.5)"/><rect x="172" y="91" width="9" height="9" transform="rotate(0,176.5,95.5)"/><path d="M 172 100v 9h 9v -4.5a 4.5 4.5, 0, 0, 0, -4.5 -4.5" transform="rotate(180,176.5,104.5)"/><path d="M 172 199v 9h 9v -4.5a 4.5 4.5, 0, 0, 0, -4.5 -4.5" transform="rotate(0,176.5,203.5)"/><rect x="172" y="208" width="9" height="9" transform="rotate(0,176.5,212.5)"/><path d="M 172 217v 9h 9v -4.5a 4.5 4.5, 0, 0, 0, -4.5 -4.5" transform="rotate(90,176.5,221.5)"/><path d="M 172 253v 9h 4.5a 4.5 4.5, 0, 0, 0, 0 -9" transform="rotate(0,176.5,257.5)"/><path d="M 172 289v 9h 4.5a 4.5 4.5, 0, 0, 0, 0 -9" transform="rotate(180,176.5,293.5)"/><path d="M 181 19v 9h 4.5a 4.5 4.5, 0, 0, 0, 0 -9" transform="rotate(0,185.5,23.5)"/><path d="M 181 37v 9h 9v -4.5a 4.5 4.5, 0, 0, 0, -4.5 -4.5" transform="rotate(0,185.5,41.5)"/><rect x="181" y="46" width="9" height="9" transform="rotate(0,185.5,50.5)"/><path d="M 181 55v 9h 4.5a 4.5 4.5, 0, 0, 0, 0 -9" transform="rotate(90,185.5,59.5)"/><rect x="181" y="73" width="9" height="9" transform="rotate(0,185.5,77.5)"/><rect x="181" y="82" width="9" height="9" transform="rotate(0,185.5,86.5)"/><rect x="181" y="91" width="9" height="9" transform="rotate(0,185.5,95.5)"/><path d="M 181 100v 9h 9v -4.5a 4.5 4.5, 0, 0, 0, -4.5 -4.5" transform="rotate(90,185.5,104.5)"/><path d="M 181 190v 9h 4.5a 4.5 4.5, 0, 0, 0, 0 -9" transform="rotate(180,185.5,194.5)"/><path d="M 181 262v 9h 9v -4.5a 4.5 4.5, 0, 0, 0, -4.5 -4.5" transform="rotate(-90,185.5,266.5)"/><path d="M 181 271v 9h 4.5a 4.5 4.5, 0, 0, 0, 0 -9" transform="rotate(90,185.5,275.5)"/><rect x="181" y="289" width="9" height="9" transform="rotate(0,185.5,293.5)"/><path d="M 190 1v 9h 4.5a 4.5 4.5, 0, 0, 0, 0 -9" transform="rotate(-90,194.5,5.5)"/><path d="M 190 10v 9h 4.5a 4.5 4.5, 0, 0, 0, 0 -9" transform="rotate(90,194.5,14.5)"/><path d="M 190 64v 9h 4.5a 4.5 4.5, 0, 0, 0, 0 -9" transform="rotate(-90,194.5,68.5)"/><rect x="190" y="73" width="9" height="9" transform="rotate(0,194.5,77.5)"/><path d="M 190 91v 9h 4.5a 4.5 4.5, 0, 0, 0, 0 -9" transform="rotate(0,194.5,95.5)"/><path d="M 190 109v 9h 4.5a 4.5 4.5, 0, 0, 0, 0 -9" transform="rotate(180,194.5,113.5)"/><circle cx="194.5" cy="131.5" r="4.5" transform="rotate(0,194.5,131.5)"/><path d="M 190 145v 9h 9v -4.5a 4.5 4.5, 0, 0, 0, -4.5 -4.5" transform="rotate(-90,194.5,149.5)"/><path d="M 190 154v 9h 4.5a 4.5 4.5, 0, 0, 0, 0 -9" transform="rotate(90,194.5,158.5)"/><path d="M 190 172v 9h 4.5a 4.5 4.5, 0, 0, 0, 0 -9" transform="rotate(-90,194.5,176.5)"/><rect x="190" y="181" width="9" height="9" transform="rotate(0,194.5,185.5)"/><rect x="190" y="190" width="9" height="9" transform="rotate(0,194.5,194.5)"/><rect x="190" y="199" width="9" height="9" transform="rotate(0,194.5,203.5)"/><rect x="190" y="208" width="9" height="9" transform="rotate(0,194.5,212.5)"/><path d="M 190 217v 9h 9v -4.5a 4.5 4.5, 0, 0, 0, -4.5 -4.5" transform="rotate(180,194.5,221.5)"/><path d="M 190 235v 9h 4.5a 4.5 4.5, 0, 0, 0, 0 -9" transform="rotate(180,194.5,239.5)"/><path d="M 190 262v 9h 4.5a 4.5 4.5, 0, 0, 0, 0 -9" transform="rotate(0,194.5,266.5)"/><rect x="190" y="289" width="9" height="9" transform="rotate(0,194.5,293.5)"/><path d="M 199 19v 9h 4.5a 4.5 4.5, 0, 0, 0, 0 -9" transform="rotate(-90,203.5,23.5)"/><path d="M 199 28v 9h 4.5a 4.5 4.5, 0, 0, 0, 0 -9" transform="rotate(90,203.5,32.5)"/><circle cx="203.5" cy="59.5" r="4.5" transform="rotate(0,203.5,59.5)"/><rect x="199" y="73" width="9" height="9" transform="rotate(0,203.5,77.5)"/><path d="M 199 109v 9h 9v -4.5a 4.5 4.5, 0, 0, 0, -4.5 -4.5" transform="rotate(0,203.5,113.5)"/><path d="M 199 118v 9h 9v -4.5a 4.5 4.5, 0, 0, 0, -4.5 -4.5" transform="rotate(180,203.5,122.5)"/><path d="M 199 136v 9h 9v -4.5a 4.5 4.5, 0, 0, 0, -4.5 -4.5" transform="rotate(-90,203.5,140.5)"/><rect x="199" y="145" width="9" height="9" transform="rotate(0,203.5,149.5)"/><path d="M 199 163v 9h 4.5a 4.5 4.5, 0, 0, 0, 0 -9" transform="rotate(180,203.5,167.5)"/><path d="M 199 190v 9h 4.5a 4.5 4.5, 0, 0, 0, 0 -9" transform="rotate(0,203.5,194.5)"/><rect x="199" y="208" width="9" height="9" transform="rotate(0,203.5,212.5)"/><rect x="199" y="217" width="9" height="9" transform="rotate(0,203.5,221.5)"/><rect x="199" y="226" width="9" height="9" transform="rotate(0,203.5,230.5)"/><rect x="199" y="235" width="9" height="9" transform="rotate(0,203.5,239.5)"/><path d="M 199 271v 9h 4.5a 4.5 4.5, 0, 0, 0, 0 -9" transform="rotate(-90,203.5,275.5)"/><rect x="199" y="280" width="9" height="9" transform="rotate(0,203.5,284.5)"/><rect x="199" y="289" width="9" height="9" transform="rotate(0,203.5,293.5)"/><circle cx="212.5" cy="14.5" r="4.5" transform="rotate(0,212.5,14.5)"/><path d="M 208 73v 9h 4.5a 4.5 4.5, 0, 0, 0, 0 -9" transform="rotate(0,212.5,77.5)"/><path d="M 208 91v 9h 4.5a 4.5 4.5, 0, 0, 0, 0 -9" transform="rotate(-90,212.5,95.5)"/><path d="M 208 100v 9h 4.5a 4.5 4.5, 0, 0, 0, 0 -9" transform="rotate(90,212.5,104.5)"/><path d="M 208 118v 9h 9v -4.5a 4.5 4.5, 0, 0, 0, -4.5 -4.5" transform="rotate(0,212.5,122.5)"/><rect x="208" y="127" width="9" height="9" transform="rotate(0,212.5,131.5)"/><rect x="208" y="136" width="9" height="9" transform="rotate(0,212.5,140.5)"/><path d="M 208 145v 9h 9v -4.5a 4.5 4.5, 0, 0, 0, -4.5 -4.5" transform="rotate(90,212.5,149.5)"/><path d="M 208 163v 9h 9v -4.5a 4.5 4.5, 0, 0, 0, -4.5 -4.5" transform="rotate(0,212.5,167.5)"/><rect x="208" y="172" width="9" height="9" transform="rotate(0,212.5,176.5)"/><path d="M 208 181v 9h 4.5a 4.5 4.5, 0, 0, 0, 0 -9" transform="rotate(90,212.5,185.5)"/><path d="M 208 208v 9h 4.5a 4.5 4.5, 0, 0, 0, 0 -9" transform="rotate(0,212.5,212.5)"/><rect x="208" y="235" width="9" height="9" transform="rotate(0,212.5,239.5)"/><rect x="208" y="244" width="9" height="9" transform="rotate(0,212.5,248.5)"/><rect x="208" y="253" width="9" height="9" transform="rotate(0,212.5,257.5)"/><path d="M 208 262v 9h 9v -4.5a 4.5 4.5, 0, 0, 0, -4.5 -4.5" transform="rotate(180,212.5,266.5)"/><rect x="208" y="280" width="9" height="9" transform="rotate(0,212.5,284.5)"/><rect x="208" y="289" width="9" height="9" transform="rotate(0,212.5,293.5)"/><circle cx="221.5" cy="5.5" r="4.5" transform="rotate(0,221.5,5.5)"/><circle cx="221.5" cy="23.5" r="4.5" transform="rotate(0,221.5,23.5)"/><circle cx="221.5" cy="41.5" r="4.5" transform="rotate(0,221.5,41.5)"/><path d="M 217 55v 9h 4.5a 4.5 4.5, 0, 0, 0, 0 -9" transform="rotate(-90,221.5,59.5)"/><path d="M 217 64v 9h 4.5a 4.5 4.5, 0, 0, 0, 0 -9" transform="rotate(90,221.5,68.5)"/><path d="M 217 109v 9h 4.5a 4.5 4.5, 0, 0, 0, 0 -9" transform="rotate(180,221.5,113.5)"/><rect x="217" y="172" width="9" height="9" transform="rotate(0,221.5,176.5)"/><circle cx="221.5" cy="203.5" r="4.5" transform="rotate(0,221.5,203.5)"/><path d="M 217 217v 9h 9v -4.5a 4.5 4.5, 0, 0, 0, -4.5 -4.5" transform="rotate(-90,221.5,221.5)"/><rect x="217" y="226" width="9" height="9" transform="rotate(0,221.5,230.5)"/><rect x="217" y="235" width="9" height="9" transform="rotate(0,221.5,239.5)"/><rect x="217" y="244" width="9" height="9" transform="rotate(0,221.5,248.5)"/><rect x="217" y="253" width="9" height="9" transform="rotate(0,221.5,257.5)"/><rect x="217" y="262" width="9" height="9" transform="rotate(0,221.5,266.5)"/><path d="M 217 280v 9h 9v -4.5a 4.5 4.5, 0, 0, 0, -4.5 -4.5" transform="rotate(0,221.5,284.5)"/><path d="M 217 289v 9h 9v -4.5a 4.5 4.5, 0, 0, 0, -4.5 -4.5" transform="rotate(90,221.5,293.5)"/><circle cx="230.5" cy="77.5" r="4.5" transform="rotate(0,230.5,77.5)"/><path d="M 226 91v 9h 4.5a 4.5 4.5, 0, 0, 0, 0 -9" transform="rotate(180,230.5,95.5)"/><path d="M 226 109v 9h 9v -4.5a 4.5 4.5, 0, 0, 0, -4.5 -4.5" transform="rotate(0,230.5,113.5)"/><path d="M 226 118v 9h 4.5a 4.5 4.5, 0, 0, 0, 0 -9" transform="rotate(90,230.5,122.5)"/><path d="M 226 145v 9h 4.5a 4.5 4.5, 0, 0, 0, 0 -9" transform="rotate(-90,230.5,149.5)"/><path d="M 226 154v 9h 9v -4.5a 4.5 4.5, 0, 0, 0, -4.5 -4.5" transform="rotate(180,230.5,158.5)"/><rect x="226" y="172" width="9" height="9" transform="rotate(0,230.5,176.5)"/><path d="M 226 181v 9h 9v -4.5a 4.5 4.5, 0, 0, 0, -4.5 -4.5" transform="rotate(180,230.5,185.5)"/><rect x="226" y="217" width="9" height="9" transform="rotate(0,230.5,221.5)"/><rect x="226" y="253" width="9" height="9" transform="rotate(0,230.5,257.5)"/><path d="M 226 262v 9h 9v -4.5a 4.5 4.5, 0, 0, 0, -4.5 -4.5" transform="rotate(90,230.5,266.5)"/><path d="M 235 91v 9h 9v -4.5a 4.5 4.5, 0, 0, 0, -4.5 -4.5" transform="rotate(0,239.5,95.5)"/><path d="M 235 100v 9h 9v -4.5a 4.5 4.5, 0, 0, 0, -4.5 -4.5" transform="rotate(180,239.5,104.5)"/><path d="M 235 136v 9h 4.5a 4.5 4.5, 0, 0, 0, 0 -9" transform="rotate(180,239.5,140.5)"/><rect x="235" y="154" width="9" height="9" transform="rotate(0,239.5,158.5)"/><path d="M 235 172v 9h 9v -4.5a 4.5 4.5, 0, 0, 0, -4.5 -4.5" transform="rotate(0,239.5,176.5)"/><rect x="235" y="181" width="9" height="9" transform="rotate(0,239.5,185.5)"/><rect x="235" y="190" width="9" height="9" transform="rotate(0,239.5,194.5)"/><rect x="235" y="199" width="9" height="9" transform="rotate(0,239.5,203.5)"/><rect x="235" y="208" width="9" height="9" transform="rotate(0,239.5,212.5)"/><rect x="235" y="217" width="9" height="9" transform="rotate(0,239.5,221.5)"/><circle cx="239.5" cy="239.5" r="4.5" transform="rotate(0,239.5,239.5)"/><rect x="235" y="253" width="9" height="9" transform="rotate(0,239.5,257.5)"/><path d="M 244 73v 9h 4.5a 4.5 4.5, 0, 0, 0, 0 -9" transform="rotate(-90,248.5,77.5)"/><path d="M 244 82v 9h 4.5a 4.5 4.5, 0, 0, 0, 0 -9" transform="rotate(90,248.5,86.5)"/><rect x="244" y="100" width="9" height="9" transform="rotate(0,248.5,104.5)"/><path d="M 244 109v 9h 9v -4.5a 4.5 4.5, 0, 0, 0, -4.5 -4.5" transform="rotate(180,248.5,113.5)"/><path d="M 244 127v 9h 4.5a 4.5 4.5, 0, 0, 0, 0 -9" transform="rotate(-90,248.5,131.5)"/><rect x="244" y="136" width="9" height="9" transform="rotate(0,248.5,140.5)"/><rect x="244" y="145" width="9" height="9" transform="rotate(0,248.5,149.5)"/><rect x="244" y="154" width="9" height="9" transform="rotate(0,248.5,158.5)"/><path d="M 244 163v 9h 4.5a 4.5 4.5, 0, 0, 0, 0 -9" transform="rotate(90,248.5,167.5)"/><rect x="244" y="181" width="9" height="9" transform="rotate(0,248.5,185.5)"/><rect x="244" y="190" width="9" height="9" transform="rotate(0,248.5,194.5)"/><rect x="244" y="208" width="9" height="9" transform="rotate(0,248.5,212.5)"/><rect x="244" y="217" width="9" height="9" transform="rotate(0,248.5,221.5)"/><rect x="244" y="253" width="9" height="9" transform="rotate(0,248.5,257.5)"/><rect x="244" y="262" width="9" height="9" transform="rotate(0,248.5,266.5)"/><rect x="244" y="271" width="9" height="9" transform="rotate(0,248.5,275.5)"/><path d="M 244 280v 9h 9v -4.5a 4.5 4.5, 0, 0, 0, -4.5 -4.5" transform="rotate(180,248.5,284.5)"/><rect x="253" y="100" width="9" height="9" transform="rotate(0,257.5,104.5)"/><rect x="253" y="109" width="9" height="9" transform="rotate(0,257.5,113.5)"/><path d="M 253 118v 9h 9v -4.5a 4.5 4.5, 0, 0, 0, -4.5 -4.5" transform="rotate(180,257.5,122.5)"/><rect x="253" y="145" width="9" height="9" transform="rotate(0,257.5,149.5)"/><path d="M 253 172v 9h 4.5a 4.5 4.5, 0, 0, 0, 0 -9" transform="rotate(-90,257.5,176.5)"/><rect x="253" y="181" width="9" height="9" transform="rotate(0,257.5,185.5)"/><rect x="253" y="190" width="9" height="9" transform="rotate(0,257.5,194.5)"/><rect x="253" y="199" width="9" height="9" transform="rotate(0,257.5,203.5)"/><rect x="253" y="208" width="9" height="9" transform="rotate(0,257.5,212.5)"/><rect x="253" y="217" width="9" height="9" transform="rotate(0,257.5,221.5)"/><rect x="253" y="226" width="9" height="9" transform="rotate(0,257.5,230.5)"/><rect x="253" y="235" width="9" height="9" transform="rotate(0,257.5,239.5)"/><rect x="253" y="244" width="9" height="9" transform="rotate(0,257.5,248.5)"/><path d="M 253 253v 9h 9v -4.5a 4.5 4.5, 0, 0, 0, -4.5 -4.5" transform="rotate(90,257.5,257.5)"/><path d="M 253 271v 9h 9v -4.5a 4.5 4.5, 0, 0, 0, -4.5 -4.5" transform="rotate(0,257.5,275.5)"/><rect x="253" y="280" width="9" height="9" transform="rotate(0,257.5,284.5)"/><path d="M 253 289v 9h 9v -4.5a 4.5 4.5, 0, 0, 0, -4.5 -4.5" transform="rotate(180,257.5,293.5)"/><path d="M 262 73v 9h 4.5a 4.5 4.5, 0, 0, 0, 0 -9" transform="rotate(180,266.5,77.5)"/><path d="M 262 100v 9h 9v -4.5a 4.5 4.5, 0, 0, 0, -4.5 -4.5" transform="rotate(0,266.5,104.5)"/><rect x="262" y="109" width="9" height="9" transform="rotate(0,266.5,113.5)"/><rect x="262" y="118" width="9" height="9" transform="rotate(0,266.5,122.5)"/><path d="M 262 136v 9h 4.5a 4.5 4.5, 0, 0, 0, 0 -9" transform="rotate(-90,266.5,140.5)"/><rect x="262" y="145" width="9" height="9" transform="rotate(0,266.5,149.5)"/><rect x="262" y="154" width="9" height="9" transform="rotate(0,266.5,158.5)"/><path d="M 262 163v 9h 4.5a 4.5 4.5, 0, 0, 0, 0 -9" transform="rotate(90,266.5,167.5)"/><rect x="262" y="181" width="9" height="9" transform="rotate(0,266.5,185.5)"/><rect x="262" y="190" width="9" height="9" transform="rotate(0,266.5,194.5)"/><rect x="262" y="199" width="9" height="9" transform="rotate(0,266.5,203.5)"/><path d="M 262 208v 9h 9v -4.5a 4.5 4.5, 0, 0, 0, -4.5 -4.5" transform="rotate(90,266.5,212.5)"/><rect x="262" y="244" width="9" height="9" transform="rotate(0,266.5,248.5)"/><path d="M 262 280v 9h 9v -4.5a 4.5 4.5, 0, 0, 0, -4.5 -4.5" transform="rotate(0,266.5,284.5)"/><path d="M 262 289v 9h 9v -4.5a 4.5 4.5, 0, 0, 0, -4.5 -4.5" transform="rotate(90,266.5,293.5)"/><rect x="271" y="73" width="9" height="9" transform="rotate(0,275.5,77.5)"/><path d="M 271 82v 9h 4.5a 4.5 4.5, 0, 0, 0, 0 -9" transform="rotate(90,275.5,86.5)"/><path d="M 271 118v 9h 9v -4.5a 4.5 4.5, 0, 0, 0, -4.5 -4.5" transform="rotate(0,275.5,122.5)"/><path d="M 271 127v 9h 4.5a 4.5 4.5, 0, 0, 0, 0 -9" transform="rotate(90,275.5,131.5)"/><rect x="271" y="145" width="9" height="9" transform="rotate(0,275.5,149.5)"/><rect x="271" y="154" width="9" height="9" transform="rotate(0,275.5,158.5)"/><rect x="271" y="181" width="9" height="9" transform="rotate(0,275.5,185.5)"/><rect x="271" y="199" width="9" height="9" transform="rotate(0,275.5,203.5)"/><path d="M 271 235v 9h 4.5a 4.5 4.5, 0, 0, 0, 0 -9" transform="rotate(-90,275.5,239.5)"/><rect x="271" y="244" width="9" height="9" transform="rotate(0,275.5,248.5)"/><path d="M 280 73v 9h 4.5a 4.5 4.5, 0, 0, 0, 0 -9" transform="rotate(0,284.5,77.5)"/><circle cx="284.5" cy="95.5" r="4.5" transform="rotate(0,284.5,95.5)"/><circle cx="284.5" cy="113.5" r="4.5" transform="rotate(0,284.5,113.5)"/><path d="M 280 145v 9h 9v -4.5a 4.5 4.5, 0, 0, 0, -4.5 -4.5" transform="rotate(0,284.5,149.5)"/><path d="M 280 154v 9h 9v -4.5a 4.5 4.5, 0, 0, 0, -4.5 -4.5" transform="rotate(90,284.5,158.5)"/><path d="M 280 181v 9h 4.5a 4.5 4.5, 0, 0, 0, 0 -9" transform="rotate(0,284.5,185.5)"/><path d="M 280 199v 9h 9v -4.5a 4.5 4.5, 0, 0, 0, -4.5 -4.5" transform="rotate(0,284.5,203.5)"/><rect x="280" y="208" width="9" height="9" transform="rotate(0,284.5,212.5)"/><rect x="280" y="217" width="9" height="9" transform="rotate(0,284.5,221.5)"/><path d="M 280 226v 9h 4.5a 4.5 4.5, 0, 0, 0, 0 -9" transform="rotate(90,284.5,230.5)"/><path d="M 280 244v 9h 9v -4.5a 4.5 4.5, 0, 0, 0, -4.5 -4.5" transform="rotate(0,284.5,248.5)"/><path d="M 280 253v 9h 9v -4.5a 4.5 4.5, 0, 0, 0, -4.5 -4.5" transform="rotate(180,284.5,257.5)"/><circle cx="284.5" cy="293.5" r="4.5" transform="rotate(0,284.5,293.5)"/><path d="M 289 118v 9h 4.5a 4.5 4.5, 0, 0, 0, 0 -9" transform="rotate(-90,293.5,122.5)"/><rect x="289" y="127" width="9" height="9" transform="rotate(0,293.5,131.5)"/><path d="M 289 136v 9h 4.5a 4.5 4.5, 0, 0, 0, 0 -9" transform="rotate(90,293.5,140.5)"/><circle cx="293.5" cy="167.5" r="4.5" transform="rotate(0,293.5,167.5)"/><circle cx="293.5" cy="194.5" r="4.5" transform="rotate(0,293.5,194.5)"/><path d="M 289 208v 9h 4.5a 4.5 4.5, 0, 0, 0, 0 -9" transform="rotate(0,293.5,212.5)"/><path d="M 289 253v 9h 9v -4.5a 4.5 4.5, 0, 0, 0, -4.5 -4.5" transform="rotate(0,293.5,257.5)"/><rect x="289" y="262" width="9" height="9" transform="rotate(0,293.5,266.5)"/><path d="M 289 271v 9h 4.5a 4.5 4.5, 0, 0, 0, 0 -9" transform="rotate(90,293.5,275.5)"/><path d="M 1 1v 9h 9v -4.5a 4.5 4.5, 0, 0, 0, -4.5 -4.5" transform="rotate(-90,5.5,5.5)"/><rect x="1" y="10" width="9" height="9" transform="rotate(0,5.5,14.5)"/><rect x="1" y="19" width="9" height="9" transform="rotate(0,5.5,23.5)"/><rect x="1" y="28" width="9" height="9" transform="rotate(0,5.5,32.5)"/><rect x="1" y="37" width="9" height="9" transform="rotate(0,5.5,41.5)"/><rect x="1" y="46" width="9" height="9" transform="rotate(0,5.5,50.5)"/><path d="M 1 55v 9h 9v -4.5a 4.5 4.5, 0, 0, 0, -4.5 -4.5" transform="rotate(180,5.5,59.5)"/><rect x="10" y="1" width="9" height="9" transform="rotate(0,14.5,5.5)"/><rect x="10" y="55" width="9" height="9" transform="rotate(0,14.5,59.5)"/><rect x="19" y="1" width="9" height="9" transform="rotate(0,23.5,5.5)"/><rect x="19" y="55" width="9" height="9" transform="rotate(0,23.5,59.5)"/><rect x="28" y="1" width="9" height="9" transform="rotate(0,32.5,5.5)"/><rect x="28" y="55" width="9" height="9" transform="rotate(0,32.5,59.5)"/><rect x="37" y="1" width="9" height="9" transform="rotate(0,41.5,5.5)"/><rect x="37" y="55" width="9" height="9" transform="rotate(0,41.5,59.5)"/><rect x="46" y="1" width="9" height="9" transform="rotate(0,50.5,5.5)"/><rect x="46" y="55" width="9" height="9" transform="rotate(0,50.5,59.5)"/><path d="M 55 1v 9h 9v -4.5a 4.5 4.5, 0, 0, 0, -4.5 -4.5" transform="rotate(0,59.5,5.5)"/><rect x="55" y="10" width="9" height="9" transform="rotate(0,59.5,14.5)"/><rect x="55" y="19" width="9" height="9" transform="rotate(0,59.5,23.5)"/><rect x="55" y="28" width="9" height="9" transform="rotate(0,59.5,32.5)"/><rect x="55" y="37" width="9" height="9" transform="rotate(0,59.5,41.5)"/><rect x="55" y="46" width="9" height="9" transform="rotate(0,59.5,50.5)"/><path d="M 55 55v 9h 9v -4.5a 4.5 4.5, 0, 0, 0, -4.5 -4.5" transform="rotate(90,59.5,59.5)"/><path d="M 19 19v 9h 9v -4.5a 4.5 4.5, 0, 0, 0, -4.5 -4.5" transform="rotate(-90,23.5,23.5)"/><rect x="19" y="28" width="9" height="9" transform="rotate(0,23.5,32.5)"/><path d="M 19 37v 9h 9v -4.5a 4.5 4.5, 0, 0, 0, -4.5 -4.5" transform="rotate(180,23.5,41.5)"/><rect x="28" y="19" width="9" height="9" transform="rotate(0,32.5,23.5)"/><rect x="28" y="28" width="9" height="9" transform="rotate(0,32.5,32.5)"/><rect x="28" y="37" width="9" height="9" transform="rotate(0,32.5,41.5)"/><path d="M 37 19v 9h 9v -4.5a 4.5 4.5, 0, 0, 0, -4.5 -4.5" transform="rotate(0,41.5,23.5)"/><rect x="37" y="28" width="9" height="9" transform="rotate(0,41.5,32.5)"/><path d="M 37 37v 9h 9v -4.5a 4.5 4.5, 0, 0, 0, -4.5 -4.5" transform="rotate(90,41.5,41.5)"/><path d="M 235 1v 9h 9v -4.5a 4.5 4.5, 0, 0, 0, -4.5 -4.5" transform="rotate(-90,239.5,5.5)"/><rect x="235" y="10" width="9" height="9" transform="rotate(0,239.5,14.5)"/><rect x="235" y="19" width="9" height="9" transform="rotate(0,239.5,23.5)"/><rect x="235" y="28" width="9" height="9" transform="rotate(0,239.5,32.5)"/><rect x="235" y="37" width="9" height="9" transform="rotate(0,239.5,41.5)"/><rect x="235" y="46" width="9" height="9" transform="rotate(0,239.5,50.5)"/><path d="M 235 55v 9h 9v -4.5a 4.5 4.5, 0, 0, 0, -4.5 -4.5" transform="rotate(180,239.5,59.5)"/><rect x="244" y="1" width="9" height="9" transform="rotate(0,248.5,5.5)"/><rect x="244" y="55" width="9" height="9" transform="rotate(0,248.5,59.5)"/><rect x="253" y="1" width="9" height="9" transform="rotate(0,257.5,5.5)"/><rect x="253" y="55" width="9" height="9" transform="rotate(0,257.5,59.5)"/><rect x="262" y="1" width="9" height="9" transform="rotate(0,266.5,5.5)"/><rect x="262" y="55" width="9" height="9" transform="rotate(0,266.5,59.5)"/><rect x="271" y="1" width="9" height="9" transform="rotate(0,275.5,5.5)"/><rect x="271" y="55" width="9" height="9" transform="rotate(0,275.5,59.5)"/><rect x="280" y="1" width="9" height="9" transform="rotate(0,284.5,5.5)"/><rect x="280" y="55" width="9" height="9" transform="rotate(0,284.5,59.5)"/><path d="M 289 1v 9h 9v -4.5a 4.5 4.5, 0, 0, 0, -4.5 -4.5" transform="rotate(0,293.5,5.5)"/><rect x="289" y="10" width="9" height="9" transform="rotate(0,293.5,14.5)"/><rect x="289" y="19" width="9" height="9" transform="rotate(0,293.5,23.5)"/><rect x="289" y="28" width="9" height="9" transform="rotate(0,293.5,32.5)"/><rect x="289" y="37" width="9" height="9" transform="rotate(0,293.5,41.5)"/><rect x="289" y="46" width="9" height="9" transform="rotate(0,293.5,50.5)"/><path d="M 289 55v 9h 9v -4.5a 4.5 4.5, 0, 0, 0, -4.5 -4.5" transform="rotate(90,293.5,59.5)"/><path d="M 253 19v 9h 9v -4.5a 4.5 4.5, 0, 0, 0, -4.5 -4.5" transform="rotate(-90,257.5,23.5)"/><rect x="253" y="28" width="9" height="9" transform="rotate(0,257.5,32.5)"/><path d="M 253 37v 9h 9v -4.5a 4.5 4.5, 0, 0, 0, -4.5 -4.5" transform="rotate(180,257.5,41.5)"/><rect x="262" y="19" width="9" height="9" transform="rotate(0,266.5,23.5)"/><rect x="262" y="28" width="9" height="9" transform="rotate(0,266.5,32.5)"/><rect x="262" y="37" width="9" height="9" transform="rotate(0,266.5,41.5)"/><path d="M 271 19v 9h 9v -4.5a 4.5 4.5, 0, 0, 0, -4.5 -4.5" transform="rotate(0,275.5,23.5)"/><rect x="271" y="28" width="9" height="9" transform="rotate(0,275.5,32.5)"/><path d="M 271 37v 9h 9v -4.5a 4.5 4.5, 0, 0, 0, -4.5 -4.5" transform="rotate(90,275.5,41.5)"/><path d="M 1 235v 9h 9v -4.5a 4.5 4.5, 0, 0, 0, -4.5 -4.5" transform="rotate(-90,5.5,239.5)"/><rect x="1" y="244" width="9" height="9" transform="rotate(0,5.5,248.5)"/><rect x="1" y="253" width="9" height="9" transform="rotate(0,5.5,257.5)"/><rect x="1" y="262" width="9" height="9" transform="rotate(0,5.5,266.5)"/><rect x="1" y="271" width="9" height="9" transform="rotate(0,5.5,275.5)"/><rect x="1" y="280" width="9" height="9" transform="rotate(0,5.5,284.5)"/><path d="M 1 289v 9h 9v -4.5a 4.5 4.5, 0, 0, 0, -4.5 -4.5" transform="rotate(180,5.5,293.5)"/><rect x="10" y="235" width="9" height="9" transform="rotate(0,14.5,239.5)"/><rect x="10" y="289" width="9" height="9" transform="rotate(0,14.5,293.5)"/><rect x="19" y="235" width="9" height="9" transform="rotate(0,23.5,239.5)"/><rect x="19" y="289" width="9" height="9" transform="rotate(0,23.5,293.5)"/><rect x="28" y="235" width="9" height="9" transform="rotate(0,32.5,239.5)"/><rect x="28" y="289" width="9" height="9" transform="rotate(0,32.5,293.5)"/><rect x="37" y="235" width="9" height="9" transform="rotate(0,41.5,239.5)"/><rect x="37" y="289" width="9" height="9" transform="rotate(0,41.5,293.5)"/><rect x="46" y="235" width="9" height="9" transform="rotate(0,50.5,239.5)"/><rect x="46" y="289" width="9" height="9" transform="rotate(0,50.5,293.5)"/><path d="M 55 235v 9h 9v -4.5a 4.5 4.5, 0, 0, 0, -4.5 -4.5" transform="rotate(0,59.5,239.5)"/><rect x="55" y="244" width="9" height="9" transform="rotate(0,59.5,248.5)"/><rect x="55" y="253" width="9" height="9" transform="rotate(0,59.5,257.5)"/><rect x="55" y="262" width="9" height="9" transform="rotate(0,59.5,266.5)"/><rect x="55" y="271" width="9" height="9" transform="rotate(0,59.5,275.5)"/><rect x="55" y="280" width="9" height="9" transform="rotate(0,59.5,284.5)"/><path d="M 55 289v 9h 9v -4.5a 4.5 4.5, 0, 0, 0, -4.5 -4.5" transform="rotate(90,59.5,293.5)"/><path d="M 19 253v 9h 9v -4.5a 4.5 4.5, 0, 0, 0, -4.5 -4.5" transform="rotate(-90,23.5,257.5)"/><rect x="19" y="262" width="9" height="9" transform="rotate(0,23.5,266.5)"/><path d="M 19 271v 9h 9v -4.5a 4.5 4.5, 0, 0, 0, -4.5 -4.5" transform="rotate(180,23.5,275.5)"/><rect x="28" y="253" width="9" height="9" transform="rotate(0,32.5,257.5)"/><rect x="28" y="262" width="9" height="9" transform="rotate(0,32.5,266.5)"/><rect x="28" y="271" width="9" height="9" transform="rotate(0,32.5,275.5)"/><path d="M 37 253v 9h 9v -4.5a 4.5 4.5, 0, 0, 0, -4.5 -4.5" transform="rotate(0,41.5,257.5)"/><rect x="37" y="262" width="9" height="9" transform="rotate(0,41.5,266.5)"/><path d="M 37 271v 9h 9v -4.5a 4.5 4.5, 0, 0, 0, -4.5 -4.5" transform="rotate(90,41.5,275.5)"/></clipPath></defs><rect x="0" y="0" height="300" width="300" clip-path="url('#clip-path-background-color')" fill="#ffffffff"/><rect x="1" y="1" height="297" width="297" clip-path="url('#clip-path-dot-color')" fill="#363f4c"/><image href="https://upload.wikimedia.org/wikipedia/commons/9/91/Octicons-mark-github.svg" x="119" y="119" width="61px" height="61px"/></svg>